<svg id="visual" viewBox="0 0 5000 1000" width="5000" height="1000" xmlns="http://www.w3.org/2000/svg" xmlns:xlink="http://www.w3.org/1999/xlink" version="1.1"><path d="M0 171L64.2 164.3C128.3 157.7 256.7 144.3 384.8 131.8C513 119.3 641 107.7 769.2 95.7C897.3 83.7 1025.7 71.3 1153.8 77.3C1282 83.3 1410 107.7 1538.2 118.3C1666.3 129 1794.7 126 1923 131.8C2051.3 137.7 2179.7 152.3 2307.8 145.3C2436 138.3 2564 109.7 2692.2 115.8C2820.3 122 2948.7 163 3077 177.7C3205.3 192.3 3333.7 180.7 3461.8 178.8C3590 177 3718 185 3846.2 187.5C3974.3 190 4102.7 187 4230.8 171.7C4359 156.3 4487 128.7 4615.2 132.7C4743.3 136.7 4871.7 172.3 4935.8 190.2L5000 208L5000 1001L4935.8 1001C4871.7 1001 4743.3 1001 4615.2 1001C4487 1001 4359 1001 4230.8 1001C4102.7 1001 3974.3 1001 3846.2 1001C3718 1001 3590 1001 3461.8 1001C3333.7 1001 3205.3 1001 3077 1001C2948.7 1001 2820.3 1001 2692.2 1001C2564 1001 2436 1001 2307.8 1001C2179.7 1001 2051.3 1001 1923 1001C1794.7 1001 1666.3 1001 1538.2 1001C1410 1001 1282 1001 1153.8 1001C1025.7 1001 897.3 1001 769.2 1001C641 1001 513 1001 384.8 1001C256.7 1001 128.3 1001 64.2 1001L0 1001Z" fill="#4facf7"></path><path d="M0 328L64.2 326.5C128.3 325 256.7 322 384.8 306.8C513 291.7 641 264.3 769.2 256C897.3 247.7 1025.7 258.3 1153.8 266.2C1282 274 1410 279 1538.2 272.3C1666.3 265.7 1794.7 247.3 1923 256.3C2051.3 265.3 2179.7 301.7 2307.8 311.5C2436 321.3 2564 304.7 2692.2 305.2C2820.3 305.7 2948.7 323.3 3077 316.2C3205.3 309 3333.7 277 3461.8 264.2C3590 251.3 3718 257.7 3846.2 270C3974.3 282.3 4102.7 300.7 4230.8 317.7C4359 334.7 4487 350.3 4615.2 349C4743.3 347.7 4871.7 329.3 4935.8 320.2L5000 311L5000 1001L4935.8 1001C4871.7 1001 4743.3 1001 4615.2 1001C4487 1001 4359 1001 4230.8 1001C4102.7 1001 3974.3 1001 3846.2 1001C3718 1001 3590 1001 3461.8 1001C3333.7 1001 3205.3 1001 3077 1001C2948.7 1001 2820.3 1001 2692.2 1001C2564 1001 2436 1001 2307.8 1001C2179.7 1001 2051.3 1001 1923 1001C1794.7 1001 1666.3 1001 1538.2 1001C1410 1001 1282 1001 1153.8 1001C1025.7 1001 897.3 1001 769.2 1001C641 1001 513 1001 384.8 1001C256.7 1001 128.3 1001 64.2 1001L0 1001Z" fill="#3f8ac7"></path><path d="M0 495L64.2 487C128.3 479 256.7 463 384.8 448.2C513 433.3 641 419.7 769.2 405.8C897.3 392 1025.7 378 1153.8 388.3C1282 398.7 1410 433.3 1538.2 456.7C1666.3 480 1794.7 492 1923 483.8C2051.3 475.7 2179.7 447.3 2307.8 445.3C2436 443.3 2564 467.7 2692.2 473.7C2820.3 479.7 2948.7 467.3 3077 457.5C3205.3 447.7 3333.7 440.3 3461.8 447.5C3590 454.7 3718 476.3 3846.2 469.3C3974.3 462.3 4102.7 426.7 4230.8 401.2C4359 375.7 4487 360.3 4615.2 354C4743.3 347.7 4871.7 350.3 4935.8 351.7L5000 353L5000 1001L4935.8 1001C4871.7 1001 4743.3 1001 4615.2 1001C4487 1001 4359 1001 4230.8 1001C4102.7 1001 3974.3 1001 3846.2 1001C3718 1001 3590 1001 3461.8 1001C3333.7 1001 3205.3 1001 3077 1001C2948.7 1001 2820.3 1001 2692.2 1001C2564 1001 2436 1001 2307.8 1001C2179.7 1001 2051.3 1001 1923 1001C1794.7 1001 1666.3 1001 1538.2 1001C1410 1001 1282 1001 1153.8 1001C1025.7 1001 897.3 1001 769.2 1001C641 1001 513 1001 384.8 1001C256.7 1001 128.3 1001 64.2 1001L0 1001Z" fill="#2f699a"></path><path d="M0 572L64.2 569C128.3 566 256.7 560 384.8 573.5C513 587 641 620 769.2 629C897.3 638 1025.7 623 1153.8 600.3C1282 577.7 1410 547.3 1538.2 551C1666.3 554.7 1794.7 592.3 1923 587.7C2051.3 583 2179.7 536 2307.8 514.2C2436 492.3 2564 495.7 2692.2 510.8C2820.3 526 2948.7 553 3077 564.7C3205.3 576.3 3333.7 572.7 3461.8 573.5C3590 574.3 3718 579.7 3846.2 582.8C3974.3 586 4102.7 587 4230.8 574.3C4359 561.7 4487 535.3 4615.2 543.8C4743.3 552.3 4871.7 595.7 4935.8 617.3L5000 639L5000 1001L4935.8 1001C4871.7 1001 4743.3 1001 4615.2 1001C4487 1001 4359 1001 4230.8 1001C4102.7 1001 3974.3 1001 3846.2 1001C3718 1001 3590 1001 3461.8 1001C3333.7 1001 3205.3 1001 3077 1001C2948.7 1001 2820.3 1001 2692.2 1001C2564 1001 2436 1001 2307.8 1001C2179.7 1001 2051.3 1001 1923 1001C1794.7 1001 1666.3 1001 1538.2 1001C1410 1001 1282 1001 1153.8 1001C1025.7 1001 897.3 1001 769.2 1001C641 1001 513 1001 384.8 1001C256.7 1001 128.3 1001 64.2 1001L0 1001Z" fill="#1f4a6f"></path><path d="M0 719L64.2 710.2C128.3 701.3 256.7 683.7 384.8 678.7C513 673.7 641 681.3 769.2 697.2C897.3 713 1025.7 737 1153.8 747.8C1282 758.7 1410 756.3 1538.2 757.5C1666.3 758.7 1794.7 763.3 1923 765.8C2051.3 768.3 2179.7 768.7 2307.8 771C2436 773.3 2564 777.7 2692.2 757.5C2820.3 737.3 2948.7 692.7 3077 671.2C3205.3 649.7 3333.7 651.3 3461.8 649.3C3590 647.3 3718 641.7 3846.2 647.8C3974.3 654 4102.7 672 4230.8 688.7C4359 705.3 4487 720.7 4615.2 729.7C4743.3 738.7 4871.7 741.3 4935.8 742.7L5000 744L5000 1001L4935.8 1001C4871.7 1001 4743.3 1001 4615.2 1001C4487 1001 4359 1001 4230.8 1001C4102.7 1001 3974.3 1001 3846.2 1001C3718 1001 3590 1001 3461.8 1001C3333.7 1001 3205.3 1001 3077 1001C2948.7 1001 2820.3 1001 2692.2 1001C2564 1001 2436 1001 2307.8 1001C2179.7 1001 2051.3 1001 1923 1001C1794.7 1001 1666.3 1001 1538.2 1001C1410 1001 1282 1001 1153.8 1001C1025.7 1001 897.3 1001 769.2 1001C641 1001 513 1001 384.8 1001C256.7 1001 128.3 1001 64.2 1001L0 1001Z" fill="#0f2c47"></path><path d="M0 873L64.2 864.3C128.3 855.7 256.7 838.3 384.8 841.3C513 844.3 641 867.7 769.2 883.7C897.3 899.7 1025.7 908.3 1153.8 914.5C1282 920.7 1410 924.3 1538.2 912.7C1666.3 901 1794.7 874 1923 866C2051.3 858 2179.7 869 2307.8 863.7C2436 858.3 2564 836.7 2692.2 835.7C2820.3 834.7 2948.7 854.3 3077 872.7C3205.3 891 3333.7 908 3461.8 899.5C3590 891 3718 857 3846.2 859.2C3974.3 861.3 4102.7 899.7 4230.8 891.3C4359 883 4487 828 4615.2 803.3C4743.3 778.7 4871.7 784.3 4935.8 787.2L5000 790L5000 1001L4935.8 1001C4871.7 1001 4743.3 1001 4615.2 1001C4487 1001 4359 1001 4230.8 1001C4102.7 1001 3974.3 1001 3846.2 1001C3718 1001 3590 1001 3461.8 1001C3333.7 1001 3205.3 1001 3077 1001C2948.7 1001 2820.3 1001 2692.2 1001C2564 1001 2436 1001 2307.8 1001C2179.7 1001 2051.3 1001 1923 1001C1794.7 1001 1666.3 1001 1538.2 1001C1410 1001 1282 1001 1153.8 1001C1025.7 1001 897.3 1001 769.2 1001C641 1001 513 1001 384.8 1001C256.7 1001 128.3 1001 64.2 1001L0 1001Z" fill="#001122"></path></svg>